<svg width="1280" height="720" xmlns="http://www.w3.org/2000/svg" xmlns:xlink="http://www.w3.org/1999/xlink" overflow="hidden"><g><rect x="0" y="0" width="1280" height="720" fill="#FFFFFF"/><path d="M617.002 395.758 257.624 395.667 476.659 91.9973 617.002 395.758Z" stroke="#172C51" stroke-width="1.33333" stroke-miterlimit="8" fill="#DAE3F3" fill-rule="evenodd"/><path d="M341.865 533.482C265.936 578.142 168.179 552.793 123.519 476.865 78.8584 400.935 104.207 303.179 180.136 258.518 256.065 213.858 353.822 239.207 398.482 315.136 441.41 388.12 419.827 481.929 349.32 528.815" stroke="#4472C4" stroke-width="0.666667" stroke-miterlimit="8" fill="none" fill-rule="evenodd"/><path d="M368.946 547.732C284.419 606.755 167.791 586.447 108.45 502.372 49.109 418.296 69.5266 302.292 154.054 243.268 238.581 184.245 355.209 204.553 414.55 288.628 471.924 369.917 454.966 481.7 376.032 542.531" stroke="#4472C4" stroke-width="0.666667" stroke-miterlimit="8" fill="none" fill-rule="evenodd"/><path d="M256.5 394.5 616.247 394.5" stroke="#4472C4" stroke-width="0.666667" stroke-miterlimit="8" fill="none" fill-rule="evenodd"/><path d="M0 0 220.01 302.896" stroke="#4472C4" stroke-width="0.666667" stroke-miterlimit="8" fill="none" fill-rule="evenodd" transform="matrix(1 0 0 -1 256.5 394.397)"/><path d="M476.5 91.5001 616.237 394.397" stroke="#4472C4" stroke-width="0.666667" stroke-miterlimit="8" fill="none" fill-rule="evenodd"/><text font-family="Calibri,Calibri_MSFontService,sans-serif" font-weight="400" font-size="24" transform="translate(458.024 296)">sector</text><text font-family="Calibri,Calibri_MSFontService,sans-serif" font-weight="700" font-size="24" transform="translate(271.424 166)">outer</text><text font-family="Calibri,Calibri_MSFontService,sans-serif" font-weight="700" font-size="24" transform="translate(331.13 166)">circle</text><text font-family="Calibri,Calibri_MSFontService,sans-serif" font-weight="700" font-size="24" transform="translate(107.618 197)">inner</text><text font-family="Calibri,Calibri_MSFontService,sans-serif" font-weight="700" font-size="24" transform="translate(165.118 197)">circle</text><path d="M300.5 178.5 300.5 216.379" stroke="#4472C4" stroke-width="0.666667" stroke-miterlimit="8" fill="none" fill-rule="evenodd"/><path d="M147.5 209.5 179.837 260.37" stroke="#4472C4" stroke-width="0.666667" stroke-miterlimit="8" fill="none" fill-rule="evenodd"/><path d="M369.995 241.234C419.256 277.155 449.353 335.095 450.651 396.505L420.82 396.111C419.412 344.841 394.341 296.419 353.515 266.117Z" stroke="#172C51" stroke-width="1.33333" stroke-miterlimit="8" fill="#4472C4" fill-rule="evenodd"/><path d="M421 396.5C421 387.387 427.492 380 435.5 380 443.508 380 450 387.387 450 396.5 450 405.613 443.508 413 435.5 413 427.492 413 421 405.613 421 396.5Z" stroke="#548235" stroke-width="4" stroke-miterlimit="8" fill="none" fill-rule="evenodd"/><path d="M347 252C347 244.268 352.373 238 359 238 365.627 238 371 244.268 371 252 371 259.732 365.627 266 359 266 352.373 266 347 259.732 347 252Z" stroke="#548235" stroke-width="4" stroke-miterlimit="8" fill="none" fill-rule="evenodd"/><path d="M0 0 126.466 84.4343" stroke="#000000" stroke-width="0.666667" stroke-miterlimit="8" fill="none" fill-rule="evenodd" transform="matrix(1 0 0 -1 419.5 293.934)"/><text font-family="Calibri,Calibri_MSFontService,sans-serif" font-weight="700" font-size="24" transform="translate(555.142 114)">ring =</text><text font-family="Calibri,Calibri_MSFontService,sans-serif" font-weight="700" font-size="24" transform="translate(616.642 114)">outer</text><text font-family="Calibri,Calibri_MSFontService,sans-serif" font-weight="700" font-size="24" transform="translate(676.348 114)">circle</text><text font-family="Calibri,Calibri_MSFontService,sans-serif" font-weight="700" font-size="24" transform="translate(733.675 114)">-</text><text font-family="Calibri,Calibri_MSFontService,sans-serif" font-weight="700" font-size="24" transform="translate(746.508 114)">inner</text><text font-family="Calibri,Calibri_MSFontService,sans-serif" font-weight="700" font-size="24" transform="translate(804.008 114)">circle</text><text font-family="Courier New,Courier New_MSFontService,sans-serif" font-weight="700" font-size="21" transform="translate(555.142 140)">let ring =</text><text font-family="Courier New,Courier New_MSFontService,sans-serif" font-weight="700" font-size="21" transform="translate(696.308 140)">outerCircle.cut</text><text font-family="Courier New,Courier New_MSFontService,sans-serif" font-weight="700" font-size="21" transform="translate(888.808 140)">(</text><text font-family="Courier New,Courier New_MSFontService,sans-serif" font-weight="700" font-size="21" transform="translate(901.642 140)">innerCircle</text><text font-family="Courier New,Courier New_MSFontService,sans-serif" font-weight="700" font-size="21" transform="translate(1042.81 140)">)</text><text font-family="Calibri,Calibri_MSFontService,sans-serif" font-weight="700" font-size="24" transform="translate(555.142 204)">squareSlot</text><text font-family="Calibri,Calibri_MSFontService,sans-serif" font-weight="700" font-size="24" transform="translate(666.208 204)">= ring</text><text font-family="Calibri,Calibri_MSFontService,sans-serif" font-weight="700" font-size="24" transform="translate(727.708 204)">intersected</text><text font-family="Calibri,Calibri_MSFontService,sans-serif" font-weight="700" font-size="24" transform="translate(844.275 204)">with</text><text font-family="Calibri,Calibri_MSFontService,sans-serif" font-weight="700" font-size="24" transform="translate(894.608 204)">sector</text><text font-family="Courier New,Courier New_MSFontService,sans-serif" font-weight="700" font-size="21" transform="translate(555.142 230)">let</text><text font-family="Courier New,Courier New_MSFontService,sans-serif" font-weight="700" font-size="21" transform="translate(606.475 230)">squareSlot</text><text font-family="Courier New,Courier New_MSFontService,sans-serif" font-weight="700" font-size="21" transform="translate(747.642 230)">=</text><text font-family="Courier New,Courier New_MSFontService,sans-serif" font-weight="700" font-size="21" transform="translate(773.308 230)">ring.intersection</text><text font-family="Courier New,Courier New_MSFontService,sans-serif" font-weight="700" font-size="21" transform="translate(991.475 230)">(sector)</text><text font-family="Calibri,Calibri_MSFontService,sans-serif" font-weight="700" font-size="24" transform="translate(555.142 435)">slot =</text><text font-family="Calibri,Calibri_MSFontService,sans-serif" font-weight="700" font-size="24" transform="translate(609.142 435)">squareSlot</text><text font-family="Calibri,Calibri_MSFontService,sans-serif" font-weight="700" font-size="24" transform="translate(720.208 435)">fused</text><text font-family="Calibri,Calibri_MSFontService,sans-serif" font-weight="700" font-size="24" transform="translate(780.542 435)">with</text><text font-family="Calibri,Calibri_MSFontService,sans-serif" font-weight="700" font-size="24" transform="translate(830.875 435)">circle</text><text font-family="Calibri,Calibri_MSFontService,sans-serif" font-weight="700" font-size="24" transform="translate(888.202 435)">at each end</text><text font-family="Courier New,Courier New_MSFontService,sans-serif" font-weight="700" font-size="21" transform="translate(555.142 461)">let slot =</text><text font-family="Courier New,Courier New_MSFontService,sans-serif" font-weight="700" font-size="21" transform="translate(696.308 461)">squareSlot.fuse</text><text font-family="Courier New,Courier New_MSFontService,sans-serif" font-weight="700" font-size="21" transform="translate(888.808 461)">(circle1)</text><text font-family="Courier New,Courier New_MSFontService,sans-serif" font-weight="700" font-size="21" transform="translate(555.142 486)">slot =</text><text font-family="Courier New,Courier New_MSFontService,sans-serif" font-weight="700" font-size="21" transform="translate(632.142 486)">slot.fuse</text><text font-family="Courier New,Courier New_MSFontService,sans-serif" font-weight="700" font-size="21" transform="translate(747.642 486)">(circle2)</text><path d="M0 0 198.762 101.837" stroke="#000000" stroke-width="0.666667" stroke-miterlimit="8" fill="none" fill-rule="evenodd" transform="matrix(1 0 0 -1 334.5 227.337)"/><path d="M446.5 408.5 545.965 454.578" stroke="#000000" stroke-width="0.666667" stroke-miterlimit="8" fill="none" fill-rule="evenodd"/><path d="M260.642 640.418 256.5 20.5001" stroke="#4472C4" stroke-width="0.666667" stroke-miterlimit="8" fill="none" fill-rule="evenodd"/><path d="M0 0 760.526 3.75864" stroke="#4472C4" stroke-width="0.666667" stroke-miterlimit="8" fill="none" fill-rule="evenodd" transform="matrix(-1 0 0 1 813.026 394.5)"/></g></svg>